<svg width="1637" height="1325" viewBox="0 0 1637 1325" fill="none" xmlns="http://www.w3.org/2000/svg">
<g id="Frame 1">
<rect width="1637" height="1325" fill="white"/>
<g id="Kyushu">
<path id="Okinawa" d="M249.5 1272C247.5 1272.67 243.2 1274.2 242 1275L244 1269L245.5 1264L244 1260L246.5 1258L251 1254.5L255 1249.5L257 1243.5L259.5 1238.5H261.5L270.5 1240L277 1236.5L281.5 1233L284.5 1229L287.5 1226.5V1233L284.5 1235.5L278 1238.5L273 1243.5L264 1247L261.5 1251.5L259.5 1258L255 1265L251 1266.5L249.5 1272Z" stroke="black" stroke-width="2"/>
<path id="Kagoshima" d="M337 1174.5L325 1178.5L330 1163L332 1157L333.5 1150.5L339.5 1143V1138L332 1128.5L319 1143L317.5 1167.5L295.5 1155L300 1146L302 1139V1131L297 1113.5L302 1081H305.5L308.5 1088.5L315 1090.5L337 1097.5L340 1100.5L341.5 1119L363 1146L364 1150.5L361.5 1160.5L357 1169L346 1174.5H337Z" stroke="black" stroke-width="2"/>
<path id="Miyazaki" d="M424 1058C414.167 1054.5 394.3 1047.4 393.5 1047L381 1054L377 1060L370.5 1068.5L367 1078.5L363.5 1084L367 1089.5V1096.5L353.5 1101.5H344V1112.5L346.5 1118.5L349.5 1122L353.5 1127L356.5 1132.5L363.5 1140L368 1147L367 1155L364.5 1162.5L370.5 1160.5L373 1158L375.5 1153.5L379 1147.5L384.5 1134.5L388.5 1118.5L397 1096.5L411.5 1076.5L424 1064L425 1060L424 1058Z" stroke="black" stroke-width="2"/>
<path id="Oita" d="M361 997L363.5 1011.5L366.5 1017.5L372 1015L376.5 1011.5L380 1009.5L384.5 1013.5L385.5 1019L388 1028.5L393.5 1039L397 1045L400.5 1048H408L414.5 1050.5L420.5 1052.5L428.5 1056L432.5 1048L433.5 1039V1028.5L432.5 1019L428.5 1013L422.5 1015L414.5 1011.5L408 1006L412 1001.5C414.167 1000 419.8 996 425 992C430.2 988 425.5 983.333 422.5 981.5H391.5L388 986L369.5 987L361 997Z" stroke="black" stroke-width="2"/>
<path id="Kumamoto" d="M347.5 1012.5L340 1016.5L341.5 1054L315.5 1088H318.5H324.5C328.5 1089.83 336.7 1093.8 337.5 1095C338.3 1096.2 340.5 1096.83 341.5 1097C343 1097.67 346.3 1099 347.5 1099H352L355.5 1097L362.5 1095V1092.5L360.5 1088V1079L369 1064L378 1054L381.5 1049.5L388.5 1047.5L391.5 1044.5V1042L388.5 1040.5L386.5 1035L385.5 1027.5L382.5 1017.5L380 1014L376.5 1015L369 1021H365L360.5 1015L355.5 1012.5H347.5Z" stroke="black" stroke-width="2"/>
<path id="Nagasaki" d="M276 981.5H284.5L289 991L293.5 1001.5L298.5 1007.5L305.5 1012L310.5 1014.5L316 1015L319 1014.5L320 1020L321.5 1028L320 1033.5L316 1035.5L312 1038L306 1043V1039L305.5 1031.5H303H295.5L289 1033.5L285.5 1034.5L282 1038V1033.5L280 1028L277.5 1023.5L275.5 1016L276 1010.5V1006.5H277.5L279 1009L280 1013.5L282 1020C283.5 1020.67 286.5 1022.3 286.5 1023.5C286.5 1024.7 289.833 1024 291.5 1023.5H297V1019V1015L291.5 1012L289 1006.5L286.5 999.5L284.5 993.5L277.5 988L276 981.5Z" stroke="black" stroke-width="2"/>
<path id="Saga" d="M289.5 982.5L313 974.5L317 978.5H328.5L333.5 981L339 978.5V988.5L334.5 991.5L327 1001.5H317L314.5 1004V1014.5L304.5 1010L294 998.5L289.5 982.5Z" stroke="black" stroke-width="2"/>
<path id="Fukuoka" d="M389 978L383.5 964L385 950.5L380 947L350.5 948.5L346 947L314.5 972.5L318.5 976.5L334 979L339 978L340.5 980V987.5L336.5 994.5L331.5 1003L336.5 1015.5L347.5 1010L352.5 1011L360.5 1013L359 1005.5L358 996L364.5 985L371.5 983H382L389 979" stroke="black" stroke-width="2"/>
</g>
<g id="Shikoku">
<path id="Kochi" d="M488.5 1036L487 1051L509.5 1065C511.51 1051.88 518.617 1035.79 533 1023C549.5 1016.5 547.011 1010.08 555.5 1009.5C584.7 1007.5 594 1022.33 595.5 1030.5L599 1032.5L600 1035L602.5 1032.5L604 1016.5L602.5 1003.5L599 996L586 986.5L571 982L539 984L533 986.5L527.5 996L515.5 1003.5L505 1006L506.5 1013.5L502 1023L494.5 1026L488.5 1036Z" stroke="black" stroke-width="2"/>
<path id="Ehime" d="M535.5 973L568.5 970V979.5L556.5 980.5H547H538C535.167 981.5 529.8 983.7 531 984.5C532.2 985.3 523.167 994.833 518.5 999.5L509 1001.5L501 1006.5L504.5 1013L503.5 1019L491.5 1026.5L484 1037V1048.5H475.5L477.5 1034L475.5 1019L471 1006.5C469.667 1004.67 466.8 1001.1 466 1001.5C465.2 1001.9 462.333 998.333 461 996.5L471 995.5L499 983.5L501 967.5H509L513 962L523 957.5L529.5 970L535.5 973Z" stroke="black" stroke-width="2"/>
<path id="Tokushima" d="M629.5 959.5L629.266 960.321M629.266 960.321L628.5 963L626.5 965.5H621.5H615H607C605.333 965.667 601.8 966.1 601 966.5C600.2 966.9 596 966.667 594 966.5H587.5L585 968.5L580.5 970L576.5 971.5H573L571.5 975.5V978.5L576.5 980.5L582 982.5C583.167 983 585.7 984.1 586.5 984.5C587.3 984.9 591.833 986.667 594 987.5L597.5 990L603.5 997.5L605 1002V1006.5V1012.5L609 1005L611 1002L615 999.5L620.5 998.5L626.5 997.5L630.5 995.5L636.5 992.5L640 991.5V987.5V982.5L636.5 975.5V968.5L635.5 966.5L632.5 963L629.266 960.321Z" stroke="black" stroke-width="2"/>
<path id="Kagawa" d="M569.5 958.5V969L576 970L580.5 969L584.5 965.5H591L596 964.5L600 963H607H610.5H619.5L625.5 962L627.5 959.5L627 958.5L621.5 952.5L618.5 950L612 946L608.5 943L604.5 941.5L598.5 943L595 944.5L590 947L583 948.5L575 950L569.5 952.5V958.5Z" stroke="black" stroke-width="2"/>
</g>
<g id="Chugoku">
<path id="Yamaguchi" d="M431.5 898.5L437.5 894L439 914.5V917L441 920.5L446.5 922.5H451.5H455.5L458 920.5L460.5 919L461.5 922.5L464 929.5L468.5 935.5V939L464 947L461.5 951L458 953.5H455.5L451.5 951L449 949L443.5 947L429 944.5C428 943.833 425.6 942.5 424 942.5H419L415 941L412 939H404.5L394.5 937.5L388 933L384.5 920.5V917L388 913H394.5L400.5 911L404.5 913H410H414L417.5 911L420.5 908.5L424 906.5L426 903.5L429 900.5L431.5 898.5Z" stroke="black" stroke-width="2"/>
<path id="Hiroshima" d="M556 927L553.5 877L550.5 874.5L549.5 868L528.5 869L512 877L503.5 880L481.5 893H476L473 896L469.5 900.5L466.5 902L464 906.5V909L461.5 913L464 922.5L465.5 927.5L469.5 933L476 931L480 929L486.5 927H492.5H495.5L498.5 931L501.5 933L505.5 935L513 934H518.5H524.5H529.5H538.5L544.5 933L552.5 932L556 927.5" stroke="black" stroke-width="2"/>
<path id="Tottori" d="M567.5 843C589.833 841.5 635.1 838.5 637.5 838.5L642 860.5L637.5 870L628 874.5L607 860.5L590.5 864.5L584.5 857.5H579.5L559.5 874.5H552V864.5L559.5 848.5L567.5 843Z" stroke="black" stroke-width="2"/>
<path id="Shimane" d="M557.5 839.5L562.5 846.5L550 864.5H541L528.5 866L513 874.5H507.5L500 878L488.5 885L472 893L465 900L455.5 920.5H445L442 914L440.5 894L443 890.5L515.5 848.5L523 839.5L557.5 835V839.5Z" stroke="black" stroke-width="2"/>
<path id="Okayama" d="M561 926.5L556.5 875.5L577.5 860H583.5L588.5 868H594L608 862.5L628.5 877L622 883L619.5 901V908L622 913L613.5 920.5H602.5L595.5 926.5L586.5 928.5H564.5L561 926.5Z" stroke="black" stroke-width="2"/>
</g>
<g id="Kansai">
<path id="Wakayama" d="M689.5 957.5H676L670.5 977V986.5L685.5 1000L694.5 1011L701 1026L718.5 1024L719.5 1022L728.5 1009.5L721 998.5H706L703 996V974.5L708.5 970C708.833 969.167 710.3 967.6 713.5 968C716.7 968.4 714.833 960.167 713.5 956L711.5 955H692.5L689.5 957.5Z" stroke="black" stroke-width="2"/>
<path id="Nara" d="M734.5 931L720.5 918.5L715.5 932L713 952.5L717 958.5V968.5H713L705 974V996.5H721.5L733.5 984L739 983L743.5 976L743 955L745.5 952.5C747.667 952.333 751 952.1 753 952.5C755 952.9 755.333 947.333 754.5 944.5L750.5 943L740.5 938L739 931H734.5Z" stroke="black" stroke-width="2"/>
<g id="Hyogo">
<path d="M642 855L640 840.5L669.5 835.5V851L676.5 856.5V860L669.5 866.5L673.5 872L675 882.5L698 889.5V902V917L693 920.5H686L679 922L671 924.5L667 923L660 917L651 912.5L637.5 907.5H626H621.5V905L623 899V892.5L626 883.5L628.5 878L642 872L643 869V863L642 858.5V855Z" stroke="black" stroke-width="2"/>
<path d="M645.5 956.5L660 937L664 941.5L658.5 949.5L660 958.5L651 960.5L645.5 956.5Z" stroke="black" stroke-width="2"/>
</g>
<path id="Osaka" d="M720.5 915L700 898.5L699.5 918.5L694.5 921C695.167 922.333 696.8 925.8 698 929C699.5 933 690 942.5 690 945C690 947.263 680.167 952.833 675.5 954.5L676 958.5L710.5 954L720.5 920V915Z" stroke="black" stroke-width="2"/>
<path id="Kyoto" d="M699.5 834.5H672L671 850L678.5 855.5V861L671 866L675 873L676 880.5L700.5 887.5L701 899.5L717.5 909L722.5 919.5L739 930L744 921L728 901.5L729 876L713.5 867.5L711.5 857L701 856L695 851L694.5 841L699.5 837V834.5Z" stroke="black" stroke-width="2"/>
<path id="Mie" d="M767.5 914.5L778 889L792 899L789 913L778 925.5V936C785.167 941.167 800.7 952.4 805.5 956C810.3 959.6 801.167 963.833 796 965.5L783 964L774 967L764.5 979L755 980.5L752 994L732 1011L722 997.5L732 984H738.5L743.5 977V954.5L747 951.5H755L754 944.5C753.5 943.5 751.1 941.4 745.5 941C739.9 940.6 740.167 931.5 741 927L748.5 919.5L756.5 916L767.5 914.5Z" stroke="black" stroke-width="2"/>
<path id="Shiga" d="M730 900.5L745.5 919.5L767 913.5L777 884.5L779 874L776 862L763 849.5H758L755.5 862L730 875V900.5Z" stroke="black" stroke-width="2"/>
</g>
<g id="Chubu">
<path id="Aichi" d="M841 939.5L868.5 900L865 896.5H841C834.833 892.5 820.6 883.4 813 879C805.4 874.6 798.167 879.167 795.5 882L792 896.5L803.5 909.5V930L809 936L810.5 925.5H817L828 928.5L832.5 933L818.5 942L841 939.5Z" stroke="black" stroke-width="2"/>
<path id="Shizuoka" d="M889.5 895L898.5 869.5L904 899.5L917 906L923.5 887.5L933 896.5L948.5 892L954.5 910.5L963 933C960.833 934.167 956.1 936.5 954.5 936.5C952.5 936.5 959 947 948.5 951.5C940.1 955.1 932.667 947.667 930 943.5L935.5 927L945 923L937.5 912.5H933L919.5 921L912.5 923L893 954L857.5 940.5L849 943.5L843.5 940.5L845 933L865.5 902L889.5 895Z" stroke="black" stroke-width="2"/>
<path id="Gifu" d="M857 831.5V799L845 792.5H833.5L822 804L812.5 801C809.167 805.667 802 815.3 800 816.5C798 817.7 804.167 827 807.5 831.5V844.5H773L769.5 854L778.5 862L781 875.5L777 888L791 897.5C791.5 892 794 880.6 800 879C806 877.4 810.833 878.333 812.5 879L839 897.5L852.5 895L857 870C852.167 864.667 841.8 853.5 839 851.5C836.2 849.5 849.833 837.333 857 831.5Z" stroke="black" stroke-width="2"/>
<path id="Nagano" d="M924.5 849.5L938 844.5C930 846.9 932.333 818.5 934.5 804H921L923 787.5L938 775L924.5 753L902 762.5L897 759.5L879 765C872.167 774.833 858.2 795 857 797C855.5 799.5 862 831 860.5 831C852 832.5 846 840 843.5 841.5C841.5 842.7 840.667 848.667 840.5 851.5C844.333 857.167 853 868.5 857 868.5C861 868.5 855.333 886.833 852 896H862L868.5 900C873.667 898.667 885.1 895.5 889.5 893.5C895 891 892 887 893 884.5C893.8 882.5 896 873 897 868.5V861L911.5 841.5H915.5L924.5 849.5Z" stroke="black" stroke-width="2"/>
<path id="Yamanashi" d="M952 855L961.5 869L963 877.5L956.5 882.5L953 890.5H947.5L939.5 895H932L922 888L916 906L905 901.5L901 873L896.5 867.5V863.5L910.5 843L916 842L924 848.5H929L932 846.5H939.5L952 855Z" stroke="black" stroke-width="2"/>
<path id="Fukui" d="M748 818L768 796.5L791.5 817L801 816.5L801.5 825.5L807 830V843C807 843.4 784.333 844.167 773 844.5L769 851L759.5 847L756 850.5L755 861L729 873.5L715 866.5L713 858H729L750 849L754 845.5V829L748 818Z" stroke="black" stroke-width="2"/>
<path id="Ishikawa" d="M770.5 796L800.5 819L812 802L807 786L816.5 752H836V736L826.5 739.5L821.5 727H829L842 717.5L845 703H829L807 714L812 736L807 764L770.5 796Z" stroke="black" stroke-width="2"/>
<path id="Niigata" d="M998 666.5L1009.5 626L1031.5 648L1018 654V683L998 712.5L983.5 717.5V765L971.5 756.5L937.5 774L921.5 749L900.5 756.5H893.5L877.5 765L871.5 749L916.5 733.5L958 688L998 666.5Z" stroke="black" stroke-width="2"/>
<path id="Toyama" d="M858.5 758L873 752L880 771L854.5 796L831 793.5L823 801.5H809.5V783.5L816.5 758L831 752V762.5L858.5 771V758Z" stroke="black" stroke-width="2"/>
</g>
<g id="Kanto">
<path id="Kanagawa" d="M950 893.5L958.5 915.5L975.5 898.5L993.5 905.5V915.5L1009.5 905.5L1002 903V893.5L1013 884L993.5 870.5L985 876L958.5 865.5L964.5 876L950 893.5Z" stroke="black" stroke-width="2"/>
<path id="Tokyo" d="M1018.5 858L1024 876L1009.5 883.5L991.5 870.5L985 876H976.5L952.5 858L1003.5 865.5L1018.5 858Z" stroke="black" stroke-width="2"/>
<path id="Chiba" d="M1068.5 856.5L1084 876L1062 881.5L1052.5 895.5V918H1032.5L1027 930L1011 939.5V903.5L1032.5 881.5L1021.5 876L1011 831L1027 856.5H1068.5Z" stroke="black" stroke-width="2"/>
<path id="Saitama" d="M1009.5 828.5L1019.5 859L1002 866.5L952 854.5L937.5 838.5L959.5 828.5L970.5 819L1009.5 828.5Z" stroke="black" stroke-width="2"/>
<path id="Gunma" d="M980.5 765H988L980.5 799.5L1011 832L972 820.5L960.5 832L936.5 843V805.5H924.5V787L972 757L980.5 765Z" stroke="black" stroke-width="2"/>
<path id="Ibaraki" d="M1043.5 803L1050 764L1063.5 774L1070.5 770H1084V783.5L1070.5 792L1065.5 832L1084 863V876.5L1070.5 855.5H1026.5L1013 826.5L1043.5 803Z" stroke="black" stroke-width="2"/>
<path id="Tochigi" d="M1029.5 746L989 764L982.5 804.5L1013.5 827.5L1043.5 804.5L1050 764L1029.5 746Z" stroke="black" stroke-width="2"/>
</g>
<g id="Tohoku">
<path id="Fukushima" d="M1000.5 716L1015.5 684L1048.5 690L1061.5 672L1077.5 690H1104.5V730L1085.5 774H1056.5L1027.5 745L982.5 765L977.5 716H1000.5Z" stroke="black" stroke-width="2"/>
<path id="Yamagata" d="M1008.5 623L1034.5 579L1070 604.5L1077.5 623L1050 688L1015.5 679L1034.5 647L1008.5 623Z" stroke="black" stroke-width="2"/>
<path id="Akita" d="M1046.5 508V472H1102.5L1091.5 596L1075.5 606L1036.5 579L1046.5 524L1025.5 518V508H1046.5Z" stroke="black" stroke-width="2"/>
<path id="Miyagi" d="M1149.5 617L1160.5 606L1144.5 598L1134.5 612L1090.5 598L1083 606L1061.5 674L1101.5 691L1112.5 654L1140.5 660L1149.5 617Z" stroke="black" stroke-width="2"/>
<path id="Iwate" d="M1181.5 527L1157.5 471L1103 487L1093.5 596L1134.5 610L1143.5 596L1157.5 601L1181.5 527Z" stroke="black" stroke-width="2"/>
<path id="Aomori" d="M1106.5 406L1115.5 375L1152.5 392L1157.5 469L1106.5 488L1102.5 469L1052.5 466V439L1071.5 432L1077.5 406H1095.5C1099.5 406 1104.5 428 1106.5 439H1124.5L1131.5 406H1106.5Z" stroke="black" stroke-width="2"/>
</g>
<g id="Hokkaido Region">
<path id="Hokkaido" d="M1144.5 59L1180.5 51L1329.5 164L1378.5 136L1361.5 164L1368.5 209H1396.5L1245.5 335L1144.5 281L1102.5 313L1079.5 281L1060.5 313L1121.5 354L1046.5 386L1017.5 281L1072.5 251V209L1129.5 233L1144.5 59Z" stroke="black" stroke-width="2"/>
</g>
</g>
</svg>
